ffmpeg started on 2016-12-12 at 01:54:04
Report written to "Output/theora/results/ffmpeg/sintel2000k.log"
Command line:
Tools/ffmpeg/ffmpeg -benchmark -y -i Input/y4m/sintel.y4m -c:v libtheora -b:v 2000k -an Output/theora/encoded/sintel2000k.mkv
ffmpeg version N-82227-gdb23fde Copyright (c) 2000-2016 the FFmpeg developers
  built with gcc 5.4.0 (Ubuntu 5.4.0-6ubuntu1~16.04.2) 20160609
  configuration: --prefix=/home/jaroslav/ffmpeg_build --pkg-config-flags=--static --extra-cflags=-I/home/jaroslav/ffmpeg_build/include --extra-ldflags=-L/home/jaroslav/ffmpeg_build/lib --bindir=/home/jaroslav/bin --enable-gpl --enable-libass --enable-libfdk-aac --enable-libfreetype --enable-libmp3lame --enable-libopus --enable-libtheora --enable-libvorbis --enable-libvpx --enable-libx264 --enable-libx265 --enable-nvenc --enable-libmfx --enable-libxvid --enable-libgsm --enable-libopencore-amrnb --enable-version3 --enable-nonfree
  libavutil      55. 35.100 / 55. 35.100
  libavcodec     57. 66.101 / 57. 66.101
  libavformat    57. 57.100 / 57. 57.100
  libavdevice    57.  2.100 / 57.  2.100
  libavfilter     6. 66.100 /  6. 66.100
  libswscale      4.  3.100 /  4.  3.100
  libswresample   2.  4.100 /  2.  4.100
  libpostproc    54.  2.100 / 54.  2.100
Input #0, yuv4mpegpipe, from 'Input/y4m/sintel.y4m':
  Duration: 00:00:20.83, start: 0.000000, bitrate: 2057307 kb/s
    Stream #0:0: Video: rawvideo (I420 / 0x30323449), yuv420p(progressive), 4096x1744, SAR 1:1 DAR 256:109, 24 fps, 24 tbr, 24 tbn, 24 tbc
Output #0, matroska, to 'Output/theora/encoded/sintel2000k.mkv':
  Metadata:
    encoder         : Lavf57.57.100
    Stream #0:0: Video: theora (libtheora) (theo / 0x6F656874), yuv420p, 4096x1744 [SAR 1:1 DAR 256:109], q=2-31, 2000 kb/s, 24 fps, 1k tbn, 24 tbc
    Metadata:
      encoder         : Lavc57.66.101 libtheora
Stream mapping:
  Stream #0:0 -> #0:0 (rawvideo (native) -> theora (libtheora))
Press [q] to stop, [?] for help
frame=    3 fps=2.4 q=-0.0 size=       4kB time=00:00:00.08 bitrate= 380.5kbits/s speed=0.0672x    frame=    5 fps=2.7 q=-0.0 size=       4kB time=00:00:00.16 bitrate= 190.2kbits/s speed=0.0914x    frame=    7 fps=2.9 q=-0.0 size=       4kB time=00:00:00.25 bitrate= 127.3kbits/s speed=0.103x    frame=    9 fps=3.0 q=-0.0 size=       4kB time=00:00:00.33 bitrate=  95.7kbits/s speed=0.11x    frame=   11 fps=3.0 q=-0.0 size=       4kB time=00:00:00.41 bitrate=  76.5kbits/s speed=0.115x    frame=   13 fps=3.0 q=-0.0 size=     386kB time=00:00:00.50 bitrate=6318.9kbits/s speed=0.118x    frame=   16 fps=3.2 q=-0.0 size=     386kB time=00:00:00.62 bitrate=5057.1kbits/s speed=0.125x    frame=   18 fps=3.2 q=-0.0 size=     386kB time=00:00:00.70 bitrate=4465.1kbits/s speed=0.126x    frame=   20 fps=2.1 q=-0.0 size=     386kB time=00:00:00.79 bitrate=3992.1kbits/s speed=0.084x    frame=   21 fps=1.8 q=-0.0 size=     386kB time=00:00:00.83 bitrate=3795.9kbits/s speed=0.072x    frame=   23 fps=1.9 q=-0.0 size=     671kB time=00:00:00.91 bitrate=5988.9kbits/s speed=0.0746x    frame=   25 fps=1.9 q=-0.0 size=     671kB time=00:00:01.00 bitrate=5492.4kbits/s speed=0.0777x    frame=   27 fps=2.0 q=-0.0 size=     671kB time=00:00:01.08 bitrate=5071.8kbits/s speed=0.0804x    frame=   29 fps=2.1 q=-0.0 size=     671kB time=00:00:01.16 bitrate=4707.1kbits/s speed=0.083x    frame=   31 fps=2.1 q=-0.0 size=     671kB time=00:00:01.25 bitrate=4394.8kbits/s speed=0.0853x    frame=   33 fps=2.2 q=-0.0 size=     671kB time=00:00:01.33 bitrate=4121.3kbits/s speed=0.0873x    frame=   36 fps=2.2 q=-0.0 size=     817kB time=00:00:01.45 bitrate=4587.4kbits/s speed=0.0912x    frame=   38 fps=2.3 q=-0.0 size=     817kB time=00:00:01.54 bitrate=4337.7kbits/s speed=0.093x    frame=   40 fps=2.3 q=-0.0 size=     817kB time=00:00:01.62 bitrate=4116.3kbits/s speed=0.0946x    frame=   42 fps=2.4 q=-0.0 size=     817kB time=00:00:01.70 bitrate=3916.4kbits/s speed=0.0961x    frame=   44 fps=2.4 q=-0.0 size=     817kB time=00:00:01.79 bitrate=3732.9kbits/s speed=0.0976x    frame=   46 fps=2.4 q=-0.0 size=     949kB time=00:00:01.87 bitrate=4144.4kbits/s speed=0.0989x    frame=   49 fps=2.5 q=-0.0 size=     949kB time=00:00:02.00 bitrate=3885.5kbits/s speed=0.102x    frame=   51 fps=2.5 q=-0.0 size=     949kB time=00:00:02.08 bitrate=3730.8kbits/s speed=0.103x    frame=   53 fps=2.5 q=-0.0 size=     949kB time=00:00:02.16 bitrate=3586.2kbits/s speed=0.104x    frame=   55 fps=2.6 q=-0.0 size=     949kB time=00:00:02.25 bitrate=3454.0kbits/s speed=0.105x    frame=   57 fps=2.6 q=-0.0 size=    1019kB time=00:00:02.33 bitrate=3575.2kbits/s speed=0.105x    frame=   59 fps=2.6 q=-0.0 size=    1061kB time=00:00:02.41 bitrate=3593.6kbits/s speed=0.106x    frame=   61 fps=2.6 q=-0.0 size=    1061kB time=00:00:02.50 bitrate=3474.4kbits/s speed=0.106x    frame=   63 fps=2.6 q=-0.0 size=    1061kB time=00:00:02.58 bitrate=3362.8kbits/s speed=0.107x    frame=   65 fps=2.6 q=-0.0 size=    1061kB time=00:00:02.66 bitrate=3256.9kbits/s speed=0.108x    frame=   67 fps=2.6 q=-0.0 size=    1142kB time=00:00:02.75 bitrate=3400.6kbits/s speed=0.108x    frame=   69 fps=2.6 q=-0.0 size=    1170kB time=00:00:02.83 bitrate=3380.7kbits/s speed=0.109x    frame=   71 fps=2.6 q=-0.0 size=    1198kB time=00:00:02.91 bitrate=3363.8kbits/s speed=0.109x    frame=   73 fps=2.6 q=-0.0 size=    1198kB time=00:00:03.00 bitrate=3270.7kbits/s speed=0.109x    frame=   75 fps=2.7 q=-0.0 size=    1226kB time=00:00:03.08 bitrate=3257.6kbits/s speed=0.109x    frame=   77 fps=2.7 q=-0.0 size=    1252kB time=00:00:03.16 bitrate=3238.7kbits/s speed=0.109x    frame=   79 fps=2.7 q=-0.0 size=    1279kB time=00:00:03.25 bitrate=3222.6kbits/s speed=0.109x    frame=   81 fps=2.7 q=-0.0 size=    1306kB time=00:00:03.33 bitrate=3209.1kbits/s speed=0.109x    frame=   83 fps=2.7 q=-0.0 size=    1306kB time=00:00:03.41 bitrate=3130.2kbits/s speed=0.11x    frame=   85 fps=2.7 q=-0.0 size=    1337kB time=00:00:03.50 bitrate=3127.4kbits/s speed=0.11x    frame=   87 fps=2.7 q=-0.0 size=    1363kB time=00:00:03.58 bitrate=3114.9kbits/s speed=0.11x    frame=   89 fps=2.7 q=-0.0 size=    1363kB time=00:00:03.66 bitrate=3043.6kbits/s speed=0.11x    frame=   91 fps=2.7 q=-0.0 size=    1393kB time=00:00:03.75 bitrate=3042.8kbits/s speed=0.11x    frame=   93 fps=2.7 q=-0.0 size=    1393kB time=00:00:03.83 bitrate=2976.9kbits/s speed=0.11x    frame=   95 fps=2.7 q=-0.0 size=    1427kB time=00:00:03.91 bitrate=2983.5kbits/s speed=0.11x    frame=   96 fps=2.6 q=-0.0 size=    1427kB time=00:00:03.95 bitrate=2952.6kbits/s speed=0.109x    frame=   98 fps=2.6 q=-0.0 size=    1427kB time=00:00:04.04 bitrate=2891.2kbits/s speed=0.109x    frame=  100 fps=2.7 q=-0.0 size=    1460kB time=00:00:04.12 bitrate=2899.3kbits/s speed=0.109x    frame=  102 fps=2.7 q=-0.0 size=    1495kB time=00:00:04.20 bitrate=2909.6kbits/s speed=0.11x    frame=  104 fps=2.7 q=-0.0 size=    1495kB time=00:00:04.29 bitrate=2852.6kbits/s speed=0.11x    frame=  106 fps=2.7 q=-0.0 size=    1530kB time=00:00:04.37 bitrate=2863.7kbits/s speed=0.11x    frame=  108 fps=2.7 q=-0.0 size=    1530kB time=00:00:04.45 bitrate=2810.4kbits/s speed=0.111x    frame=  110 fps=2.7 q=-0.0 size=    1564kB time=00:00:04.54 bitrate=2819.5kbits/s speed=0.111x    frame=  112 fps=2.7 q=-0.0 size=    1599kB time=00:00:04.62 bitrate=2831.2kbits/s speed=0.111x    frame=  114 fps=2.7 q=-0.0 size=    1599kB time=00:00:04.70 bitrate=2781.2kbits/s speed=0.112x    frame=  116 fps=2.7 q=-0.0 size=    1659kB time=00:00:04.79 bitrate=2834.8kbits/s speed=0.112x    frame=  118 fps=2.7 q=-0.0 size=    1659kB time=00:00:04.87 bitrate=2786.6kbits/s speed=0.112x    frame=  120 fps=2.7 q=-0.0 size=    1659kB time=00:00:04.95 bitrate=2739.9kbits/s speed=0.112x    frame=  122 fps=2.7 q=-0.0 size=    1659kB time=00:00:05.04 bitrate=2694.3kbits/s speed=0.112x    frame=  124 fps=2.7 q=-0.0 size=    1659kB time=00:00:05.12 bitrate=2650.7kbits/s speed=0.113x    frame=  126 fps=2.7 q=-0.0 size=    1747kB time=00:00:05.20 bitrate=2747.5kbits/s speed=0.113x    frame=  128 fps=2.7 q=-0.0 size=    1747kB time=00:00:05.29 bitrate=2703.9kbits/s speed=0.113x    frame=  130 fps=2.7 q=-0.0 size=    1792kB time=00:00:05.37 bitrate=2730.9kbits/s speed=0.113x    frame=  132 fps=2.7 q=-0.0 size=    1792kB time=00:00:05.45 bitrate=2689.4kbits/s speed=0.113x    frame=  134 fps=2.7 q=-0.0 size=    1792kB time=00:00:05.54 bitrate=2648.6kbits/s speed=0.113x    frame=  136 fps=2.7 q=-0.0 size=    1848kB time=00:00:05.62 bitrate=2690.5kbits/s speed=0.113x    frame=  138 fps=2.7 q=-0.0 size=    1848kB time=00:00:05.70 bitrate=2651.3kbits/s speed=0.112x    frame=  140 fps=2.7 q=-0.0 size=    1848kB time=00:00:05.79 bitrate=2612.9kbits/s speed=0.112x    frame=  142 fps=2.7 q=-0.0 size=    1903kB time=00:00:05.87 bitrate=2652.8kbits/s speed=0.113x    frame=  144 fps=2.7 q=-0.0 size=    1903kB time=00:00:05.95 bitrate=2615.9kbits/s speed=0.113x    frame=  146 fps=2.7 q=-0.0 size=    1903kB time=00:00:06.04 bitrate=2579.5kbits/s speed=0.113x    frame=  148 fps=2.7 q=-0.0 size=    1903kB time=00:00:06.12 bitrate=2544.6kbits/s speed=0.113x    frame=  150 fps=2.7 q=-0.0 size=    1903kB time=00:00:06.20 bitrate=2510.5kbits/s speed=0.113x    frame=  152 fps=2.7 q=-0.0 size=    1903kB time=00:00:06.29 bitrate=2477.0kbits/s speed=0.114x    frame=  154 fps=2.7 q=-0.0 size=    1903kB time=00:00:06.37 bitrate=2444.8kbits/s speed=0.114x    frame=  156 fps=2.8 q=-0.0 size=    2054kB time=00:00:06.45 bitrate=2605.5kbits/s speed=0.114x    frame=  158 fps=2.8 q=-0.0 size=    2107kB time=00:00:06.54 bitrate=2638.0kbits/s speed=0.114x    frame=  160 fps=2.8 q=-0.0 size=    2107kB time=00:00:06.62 bitrate=2605.0kbits/s speed=0.114x    frame=  162 fps=2.8 q=-0.0 size=    2107kB time=00:00:06.70 bitrate=2572.8kbits/s speed=0.114x    frame=  164 fps=2.8 q=-0.0 size=    2140kB time=00:00:06.79 bitrate=2580.6kbits/s speed=0.114x    frame=  166 fps=2.8 q=-0.0 size=    2140kB time=00:00:06.87 bitrate=2549.5kbits/s speed=0.114x    frame=  168 fps=2.8 q=-0.0 size=    2175kB time=00:00:06.95 bitrate=2560.3kbits/s speed=0.114x    frame=  170 fps=2.8 q=-0.0 size=    2210kB time=00:00:07.04 bitrate=2570.6kbits/s speed=0.114x    frame=  172 fps=2.8 q=-0.0 size=    2210kB time=00:00:07.12 bitrate=2540.6kbits/s speed=0.114x    frame=  174 fps=2.8 q=-0.0 size=    2245kB time=00:00:07.20 bitrate=2551.1kbits/s speed=0.114x    frame=  176 fps=2.8 q=-0.0 size=    2245kB time=00:00:07.29 bitrate=2521.7kbits/s speed=0.114x    frame=  178 fps=2.8 q=-0.0 size=    2279kB time=00:00:07.37 bitrate=2531.1kbits/s speed=0.114x    frame=  180 fps=2.8 q=-0.0 size=    2279kB time=00:00:07.45 bitrate=2502.9kbits/s speed=0.114x    frame=  182 fps=2.8 q=-0.0 size=    2311kB time=00:00:07.54 bitrate=2510.2kbits/s speed=0.114x    frame=  184 fps=2.8 q=-0.0 size=    2311kB time=00:00:07.62 bitrate=2482.9kbits/s speed=0.114x    frame=  186 fps=2.8 q=-0.0 size=    2311kB time=00:00:07.70 bitrate=2456.2kbits/s speed=0.114x    frame=  188 fps=2.8 q=-0.0 size=    2346kB time=00:00:07.79 bitrate=2466.0kbits/s speed=0.114x    frame=  190 fps=2.8 q=-0.0 size=    2346kB time=00:00:07.87 bitrate=2440.1kbits/s speed=0.115x    frame=  192 fps=2.8 q=-0.0 size=    2346kB time=00:00:07.95 bitrate=2414.6kbits/s speed=0.115x    frame=  194 fps=2.8 q=-0.0 size=    2423kB time=00:00:08.04 bitrate=2467.9kbits/s speed=0.115x    frame=  196 fps=2.8 q=-0.0 size=    2455kB time=00:00:08.12 bitrate=2474.9kbits/s speed=0.115x    frame=  198 fps=2.8 q=-0.0 size=    2486kB time=00:00:08.20 bitrate=2481.2kbits/s speed=0.115x    frame=  200 fps=2.8 q=-0.0 size=    2486kB time=00:00:08.29 bitrate=2456.1kbits/s speed=0.115x    frame=  202 fps=2.8 q=-0.0 size=    2522kB time=00:00:08.37 bitrate=2466.4kbits/s speed=0.115x    frame=  204 fps=2.8 q=-0.0 size=    2522kB time=00:00:08.45 bitrate=2442.2kbits/s speed=0.115x    frame=  206 fps=2.8 q=-0.0 size=    2560kB time=00:00:08.54 bitrate=2454.9kbits/s speed=0.115x    frame=  208 fps=2.8 q=-0.0 size=    2560kB time=00:00:08.62 bitrate=2431.3kbits/s speed=0.115x    frame=  210 fps=2.8 q=-0.0 size=    2599kB time=00:00:08.70 bitrate=2444.9kbits/s speed=0.115x    frame=  212 fps=2.8 q=-0.0 size=    2599kB time=00:00:08.79 bitrate=2421.6kbits/s speed=0.115x    frame=  214 fps=2.8 q=-0.0 size=    2599kB time=00:00:08.87 bitrate=2398.9kbits/s speed=0.115x    frame=  216 fps=2.8 q=-0.0 size=    2599kB time=00:00:08.95 bitrate=2376.7kbits/s speed=0.115x    frame=  218 fps=2.8 q=-0.0 size=    2599kB time=00:00:09.04 bitrate=2354.6kbits/s speed=0.115x    frame=  220 fps=2.8 q=-0.0 size=    2599kB time=00:00:09.12 bitrate=2333.2kbits/s speed=0.115x    frame=  222 fps=2.8 q=-0.0 size=    2599kB time=00:00:09.20 bitrate=2312.2kbits/s speed=0.116x    frame=  224 fps=2.8 q=-0.0 size=    2731kB time=00:00:09.29 bitrate=2407.7kbits/s speed=0.116x    frame=  227 fps=2.8 q=-0.0 size=    2731kB time=00:00:09.41 bitrate=2375.8kbits/s speed=0.116x    frame=  229 fps=2.8 q=-0.0 size=    2731kB time=00:00:09.50 bitrate=2355.0kbits/s speed=0.117x    frame=  231 fps=2.8 q=-0.0 size=    2731kB time=00:00:09.58 bitrate=2334.6kbits/s speed=0.117x    frame=  233 fps=2.8 q=-0.0 size=    2731kB time=00:00:09.66 bitrate=2314.3kbits/s speed=0.117x    frame=  235 fps=2.8 q=-0.0 size=    2731kB time=00:00:09.75 bitrate=2294.6kbits/s speed=0.117x    frame=  238 fps=2.8 q=-0.0 size=    2867kB time=00:00:09.87 bitrate=2377.9kbits/s speed=0.117x    frame=  240 fps=2.8 q=-0.0 size=    2867kB time=00:00:09.95 bitrate=2358.0kbits/s speed=0.118x    frame=  242 fps=2.8 q=-0.0 size=    2867kB time=00:00:10.04 bitrate=2338.3kbits/s speed=0.118x    frame=  244 fps=2.8 q=-0.0 size=    2920kB time=00:00:10.12 bitrate=2362.5kbits/s speed=0.118x    frame=  246 fps=2.8 q=-0.0 size=    2920kB time=00:00:10.20 bitrate=2343.3kbits/s speed=0.118x    frame=  248 fps=2.8 q=-0.0 size=    2976kB time=00:00:10.29 bitrate=2368.2kbits/s speed=0.118x    frame=  250 fps=2.8 q=-0.0 size=    2976kB time=00:00:10.37 bitrate=2349.2kbits/s speed=0.118x    frame=  252 fps=2.8 q=-0.0 size=    2976kB time=00:00:10.45 bitrate=2330.6kbits/s speed=0.118x    frame=  254 fps=2.8 q=-0.0 size=    2976kB time=00:00:10.54 bitrate=2312.0kbits/s speed=0.118x    frame=  256 fps=2.8 q=-0.0 size=    2976kB time=00:00:10.62 bitrate=2294.0kbits/s speed=0.118x    frame=  258 fps=2.9 q=-0.0 size=    2976kB time=00:00:10.70 bitrate=2276.2kbits/s speed=0.118x    frame=  260 fps=2.9 q=-0.0 size=    2976kB time=00:00:10.79 bitrate=2258.5kbits/s speed=0.118x    frame=  262 fps=2.9 q=-0.0 size=    3129kB time=00:00:10.87 bitrate=2356.8kbits/s speed=0.119x    frame=  265 fps=2.9 q=-0.0 size=    3129kB time=00:00:11.00 bitrate=2330.0kbits/s speed=0.119x    frame=  267 fps=2.9 q=-0.0 size=    3129kB time=00:00:11.08 bitrate=2312.6kbits/s speed=0.119x    frame=  269 fps=2.9 q=-0.0 size=    3129kB time=00:00:11.16 bitrate=2295.2kbits/s speed=0.119x    frame=  271 fps=2.9 q=-0.0 size=    3129kB time=00:00:11.25 bitrate=2278.2kbits/s speed=0.119x    frame=  273 fps=2.9 q=-0.0 size=    3129kB time=00:00:11.33 bitrate=2261.5kbits/s speed=0.119x    frame=  276 fps=2.9 q=-0.0 size=    3261kB time=00:00:11.45 bitrate=2331.1kbits/s speed=0.12x    frame=  278 fps=2.9 q=-0.0 size=    3261kB time=00:00:11.54 bitrate=2314.2kbits/s speed=0.12x    frame=  280 fps=2.9 q=-0.0 size=    3261kB time=00:00:11.62 bitrate=2297.7kbits/s speed=0.12x    frame=  282 fps=2.9 q=-0.0 size=    3261kB time=00:00:11.70 bitrate=2281.4kbits/s speed=0.12x    frame=  284 fps=2.9 q=-0.0 size=    3261kB time=00:00:11.79 bitrate=2265.1kbits/s speed=0.12x    frame=  286 fps=2.9 q=-0.0 size=    3383kB time=00:00:11.87 bitrate=2333.5kbits/s speed=0.121x    frame=  289 fps=2.9 q=-0.0 size=    3383kB time=00:00:12.00 bitrate=2309.2kbits/s speed=0.121x    frame=  291 fps=2.9 q=-0.0 size=    3383kB time=00:00:12.08 bitrate=2293.3kbits/s speed=0.121x    frame=  293 fps=2.9 q=-0.0 size=    3383kB time=00:00:12.16 bitrate=2277.5kbits/s speed=0.121x    frame=  295 fps=2.9 q=-0.0 size=    3383kB time=00:00:12.25 bitrate=2262.1kbits/s speed=0.121x    frame=  297 fps=2.9 q=-0.0 size=    3383kB time=00:00:12.33 bitrate=2246.9kbits/s speed=0.122x    frame=  300 fps=2.9 q=-0.0 size=    3494kB time=00:00:12.45 bitrate=2297.1kbits/s speed=0.122x    frame=  302 fps=2.9 q=-0.0 size=    3494kB time=00:00:12.54 bitrate=2281.8kbits/s speed=0.122x    frame=  304 fps=2.9 q=-0.0 size=    3494kB time=00:00:12.62 bitrate=2266.8kbits/s speed=0.122x    frame=  306 fps=2.9 q=-0.0 size=    3494kB time=00:00:12.70 bitrate=2252.0kbits/s speed=0.122x    frame=  308 fps=2.9 q=-0.0 size=    3494kB time=00:00:12.79 bitrate=2237.2kbits/s speed=0.122x    frame=  310 fps=3.0 q=-0.0 size=    3635kB time=00:00:12.87 bitrate=2312.5kbits/s speed=0.123x    frame=  313 fps=3.0 q=-0.0 size=    3635kB time=00:00:13.00 bitrate=2290.3kbits/s speed=0.123x    frame=  315 fps=3.0 q=-0.0 size=    3635kB time=00:00:13.08 bitrate=2275.8kbits/s speed=0.123x    frame=  317 fps=3.0 q=-0.0 size=    3635kB time=00:00:13.16 bitrate=2261.2kbits/s speed=0.123x    frame=  319 fps=3.0 q=-0.0 size=    3635kB time=00:00:13.25 bitrate=2247.1kbits/s speed=0.123x    frame=  321 fps=3.0 q=-0.0 size=    3635kB time=00:00:13.33 bitrate=2233.1kbits/s speed=0.123x    frame=  324 fps=3.0 q=-0.0 size=    3759kB time=00:00:13.45 bitrate=2288.2kbits/s speed=0.124x    frame=  326 fps=3.0 q=-0.0 size=    3759kB time=00:00:13.54 bitrate=2274.0kbits/s speed=0.124x    frame=  328 fps=3.0 q=-0.0 size=    3759kB time=00:00:13.62 bitrate=2260.1kbits/s speed=0.124x    frame=  330 fps=3.0 q=-0.0 size=    3759kB time=00:00:13.70 bitrate=2246.4kbits/s speed=0.124x    frame=  332 fps=3.0 q=-0.0 size=    3759kB time=00:00:13.79 bitrate=2232.8kbits/s speed=0.124x    frame=  334 fps=3.0 q=-0.0 size=    3871kB time=00:00:13.87 bitrate=2285.4kbits/s speed=0.124x    frame=  337 fps=3.0 q=-0.0 size=    3871kB time=00:00:14.00 bitrate=2265.0kbits/s speed=0.125x    frame=  339 fps=3.0 q=-0.0 size=    3871kB time=00:00:14.08 bitrate=2251.7kbits/s speed=0.125x    frame=  341 fps=3.0 q=-0.0 size=    3871kB time=00:00:14.16 bitrate=2238.3kbits/s speed=0.125x    frame=  343 fps=3.0 q=-0.0 size=    3871kB time=00:00:14.25 bitrate=2225.3kbits/s speed=0.125x    frame=  345 fps=3.0 q=-0.0 size=    3871kB time=00:00:14.33 bitrate=2212.4kbits/s speed=0.125x    frame=  348 fps=3.0 q=-0.0 size=    3993kB time=00:00:14.45 bitrate=2262.3kbits/s speed=0.126x    frame=  350 fps=3.0 q=-0.0 size=    3993kB time=00:00:14.54 bitrate=2249.2kbits/s speed=0.126x    frame=  352 fps=3.0 q=-0.0 size=    3993kB time=00:00:14.62 bitrate=2236.4kbits/s speed=0.126x    frame=  354 fps=3.0 q=-0.0 size=    3993kB time=00:00:14.70 bitrate=2223.8kbits/s speed=0.126x    frame=  356 fps=3.0 q=-0.0 size=    3993kB time=00:00:14.79 bitrate=2211.2kbits/s speed=0.126x    frame=  358 fps=3.0 q=-0.0 size=    4114kB time=00:00:14.87 bitrate=2265.3kbits/s speed=0.126x    frame=  361 fps=3.0 q=-0.0 size=    4114kB time=00:00:15.00 bitrate=2246.4kbits/s speed=0.126x    frame=  363 fps=3.0 q=-0.0 size=    4178kB time=00:00:15.08 bitrate=2269.2kbits/s speed=0.127x    frame=  365 fps=3.0 q=-0.0 size=    4178kB time=00:00:15.16 bitrate=2256.6kbits/s speed=0.126x    frame=  367 fps=3.0 q=-0.0 size=    4178kB time=00:00:15.25 bitrate=2244.3kbits/s speed=0.126x    frame=  369 fps=3.0 q=-0.0 size=    4178kB time=00:00:15.33 bitrate=2232.2kbits/s speed=0.127x    frame=  371 fps=3.0 q=-0.0 size=    4178kB time=00:00:15.41 bitrate=2220.0kbits/s speed=0.127x    frame=  373 fps=3.0 q=-0.0 size=    4178kB time=00:00:15.50 bitrate=2208.1kbits/s speed=0.127x    frame=  375 fps=3.1 q=-0.0 size=    4178kB time=00:00:15.58 bitrate=2196.4kbits/s speed=0.127x    frame=  377 fps=3.1 q=-0.0 size=    4298kB time=00:00:15.66 bitrate=2247.3kbits/s speed=0.127x    frame=  380 fps=3.1 q=-0.0 size=    4298kB time=00:00:15.79 bitrate=2229.5kbits/s speed=0.127x    frame=  382 fps=3.1 q=-0.0 size=    4298kB time=00:00:15.87 bitrate=2217.9kbits/s speed=0.127x    frame=  384 fps=3.1 q=-0.0 size=    4298kB time=00:00:15.95 bitrate=2206.3kbits/s speed=0.127x    frame=  386 fps=3.1 q=-0.0 size=    4298kB time=00:00:16.04 bitrate=2194.8kbits/s speed=0.127x    frame=  388 fps=3.1 q=-0.0 size=    4298kB time=00:00:16.12 bitrate=2183.5kbits/s speed=0.128x    frame=  391 fps=3.1 q=-0.0 size=    4440kB time=00:00:16.25 bitrate=2237.9kbits/s speed=0.128x    frame=  393 fps=3.1 q=-0.0 size=    4440kB time=00:00:16.33 bitrate=2226.6kbits/s speed=0.128x    frame=  395 fps=3.1 q=-0.0 size=    4440kB time=00:00:16.41 bitrate=2215.2kbits/s speed=0.128x    frame=  397 fps=3.1 q=-0.0 size=    4440kB time=00:00:16.50 bitrate=2204.0kbits/s speed=0.128x    frame=  399 fps=3.1 q=-0.0 size=    4440kB time=00:00:16.58 bitrate=2193.0kbits/s speed=0.128x    frame=  401 fps=3.1 q=-0.0 size=    4565kB time=00:00:16.66 bitrate=2243.6kbits/s speed=0.128x    frame=  404 fps=3.1 q=-0.0 size=    4565kB time=00:00:16.79 bitrate=2226.9kbits/s speed=0.128x    frame=  406 fps=3.1 q=-0.0 size=    4565kB time=00:00:16.87 bitrate=2215.9kbits/s speed=0.129x    frame=  408 fps=3.1 q=-0.0 size=    4565kB time=00:00:16.95 bitrate=2205.1kbits/s speed=0.129x    frame=  410 fps=3.1 q=-0.0 size=    4565kB time=00:00:17.04 bitrate=2194.2kbits/s speed=0.129x    frame=  412 fps=3.1 q=-0.0 size=    4565kB time=00:00:17.12 bitrate=2183.6kbits/s speed=0.129x    frame=  415 fps=3.1 q=-0.0 size=    4684kB time=00:00:17.25 bitrate=2224.4kbits/s speed=0.129x    frame=  417 fps=3.1 q=-0.0 size=    4684kB time=00:00:17.33 bitrate=2213.7kbits/s speed=0.129x    frame=  419 fps=3.1 q=-0.0 size=    4735kB time=00:00:17.41 bitrate=2226.9kbits/s speed=0.129x    frame=  421 fps=3.1 q=-0.0 size=    4735kB time=00:00:17.50 bitrate=2216.3kbits/s speed=0.129x    frame=  423 fps=3.1 q=-0.0 size=    4735kB time=00:00:17.58 bitrate=2205.9kbits/s speed=0.129x    frame=  425 fps=3.1 q=-0.0 size=    4735kB time=00:00:17.66 bitrate=2195.4kbits/s speed=0.129x    frame=  427 fps=3.1 q=-0.0 size=    4735kB time=00:00:17.75 bitrate=2185.1kbits/s speed=0.129x    frame=  429 fps=3.1 q=-0.0 size=    4735kB time=00:00:17.83 bitrate=2175.0kbits/s speed=0.129x    frame=  431 fps=3.1 q=-0.0 size=    4735kB time=00:00:17.91 bitrate=2164.8kbits/s speed=0.129x    frame=  433 fps=3.1 q=-0.0 size=    4735kB time=00:00:18.00 bitrate=2154.8kbits/s speed=0.129x    frame=  436 fps=3.1 q=-0.0 size=    4879kB time=00:00:18.12 bitrate=2205.1kbits/s speed=0.129x    frame=  438 fps=3.1 q=-0.0 size=    4879kB time=00:00:18.20 bitrate=2195.0kbits/s speed=0.13x    frame=  440 fps=3.1 q=-0.0 size=    4879kB time=00:00:18.29 bitrate=2184.9kbits/s speed=0.13x    frame=  442 fps=3.1 q=-0.0 size=    4879kB time=00:00:18.37 bitrate=2175.1kbits/s speed=0.13x    frame=  444 fps=3.1 q=-0.0 size=    4879kB time=00:00:18.45 bitrate=2165.3kbits/s speed=0.13x    frame=  446 fps=3.1 q=-0.0 size=    5010kB time=00:00:18.54 bitrate=2213.4kbits/s speed=0.13x    frame=  449 fps=3.1 q=-0.0 size=    5010kB time=00:00:18.66 bitrate=2198.6kbits/s speed=0.13x    frame=  451 fps=3.1 q=-0.0 size=    5010kB time=00:00:18.75 bitrate=2188.9kbits/s speed=0.13x    frame=  453 fps=3.1 q=-0.0 size=    5010kB time=00:00:18.83 bitrate=2179.2kbits/s speed=0.13x    frame=  455 fps=3.1 q=-0.0 size=    5010kB time=00:00:18.91 bitrate=2169.6kbits/s speed=0.13x    frame=  457 fps=3.1 q=-0.0 size=    5010kB time=00:00:19.00 bitrate=2160.1kbits/s speed=0.13x    frame=  460 fps=3.1 q=-0.0 size=    5122kB time=00:00:19.12 bitrate=2193.8kbits/s speed=0.131x    frame=  462 fps=3.1 q=-0.0 size=    5122kB time=00:00:19.20 bitrate=2184.4kbits/s speed=0.13x    frame=  464 fps=3.1 q=-0.0 size=    5122kB time=00:00:19.29 bitrate=2174.8kbits/s speed=0.13x    frame=  466 fps=3.1 q=-0.0 size=    5122kB time=00:00:19.37 bitrate=2165.5kbits/s speed=0.131x    frame=  468 fps=3.1 q=-0.0 size=    5122kB time=00:00:19.45 bitrate=2156.3kbits/s speed=0.131x    frame=  470 fps=3.1 q=-0.0 size=    5265kB time=00:00:19.54 bitrate=2207.1kbits/s speed=0.131x    frame=  473 fps=3.1 q=-0.0 size=    5265kB time=00:00:19.66 bitrate=2193.1kbits/s speed=0.131x    frame=  475 fps=3.1 q=-0.0 size=    5265kB time=00:00:19.75 bitrate=2183.9kbits/s speed=0.131x    frame=  477 fps=3.1 q=-0.0 size=    5265kB time=00:00:19.83 bitrate=2174.7kbits/s speed=0.131x    frame=  479 fps=3.2 q=-0.0 size=    5265kB time=00:00:19.91 bitrate=2165.6kbits/s speed=0.131x    frame=  481 fps=3.2 q=-0.0 size=    5265kB time=00:00:20.00 bitrate=2156.6kbits/s speed=0.131x    frame=  484 fps=3.2 q=-0.0 size=    5387kB time=00:00:20.12 bitrate=2192.8kbits/s speed=0.131x    frame=  486 fps=3.2 q=-0.0 size=    5387kB time=00:00:20.20 bitrate=2183.8kbits/s speed=0.131x    frame=  488 fps=3.2 q=-0.0 size=    5387kB time=00:00:20.29 bitrate=2174.8kbits/s speed=0.131x    frame=  490 fps=3.2 q=-0.0 size=    5387kB time=00:00:20.37 bitrate=2165.9kbits/s speed=0.131x    frame=  492 fps=3.2 q=-0.0 size=    5387kB time=00:00:20.45 bitrate=2157.1kbits/s speed=0.132x    frame=  494 fps=3.2 q=-0.0 size=    5498kB time=00:00:20.54 bitrate=2192.4kbits/s speed=0.132x    frame=  497 fps=3.2 q=-0.0 size=    5498kB time=00:00:20.66 bitrate=2179.1kbits/s speed=0.132x    frame=  499 fps=3.2 q=-0.0 size=    5498kB time=00:00:20.75 bitrate=2170.4kbits/s speed=0.132x    frame=  500 fps=3.2 q=-0.0 size=    5498kB time=00:00:20.79 bitrate=2166.0kbits/s speed=0.131x    frame=  500 fps=3.2 q=-0.0 Lsize=    5583kB time=00:00:20.79 bitrate=2199.6kbits/s speed=0.131x    
video:5572kB audio:0kB subtitle:0kB other streams:0kB global headers:3kB muxing overhead: 0.200333%
bench: utime=141.352s
bench: maxrss=209972kB
